<?xml version="1.0" encoding="utf-8" standalone="no"?>
<!DOCTYPE svg PUBLIC "-//W3C//DTD SVG 1.1//EN"
  "http://www.w3.org/Graphics/SVG/1.1/DTD/svg11.dtd">
<svg xmlns:xlink="http://www.w3.org/1999/xlink" width="460.8pt" height="345.6pt" viewBox="0 0 460.8 345.6" xmlns="http://www.w3.org/2000/svg" version="1.1">
 <metadata>
  <rdf:RDF xmlns:dc="http://purl.org/dc/elements/1.1/" xmlns:cc="http://creativecommons.org/ns#" xmlns:rdf="http://www.w3.org/1999/02/22-rdf-syntax-ns#">
   <cc:Work>
    <dc:type rdf:resource="http://purl.org/dc/dcmitype/StillImage"/>
    <dc:date>2025-07-03T20:53:55.753868</dc:date>
    <dc:format>image/svg+xml</dc:format>
    <dc:creator>
     <cc:Agent>
      <dc:title>Matplotlib v3.10.3, https://matplotlib.org/</dc:title>
     </cc:Agent>
    </dc:creator>
   </cc:Work>
  </rdf:RDF>
 </metadata>
 <defs>
  <style type="text/css">*{stroke-linejoin: round; stroke-linecap: butt}</style>
 </defs>
 <g id="figure_1">
  <g id="patch_1">
   <path d="M 0 345.6 
L 460.8 345.6 
L 460.8 0 
L 0 0 
z
" style="fill: #ffffff"/>
  </g>
  <g id="axes_1">
   <g id="patch_2">
    <path d="M 57.6 307.584 
L 414.72 307.584 
L 414.72 41.472 
L 57.6 41.472 
z
" style="fill: #ffffff"/>
   </g>
   <g id="matplotlib.axis_1">
    <g id="xtick_1">
     <g id="line2d_1">
      <defs>
       <path id="me49ff17d24" d="M 0 0 
L 0 3.5 
" style="stroke: #000000; stroke-width: 0.8"/>
      </defs>
      <g>
       <use xlink:href="#me49ff17d24" x="57.6" y="307.584" style="stroke: #000000; stroke-width: 0.8"/>
      </g>
     </g>
     <g id="text_1">
      <!-- 0.0 -->
      <g transform="translate(49.648438 322.182437) scale(0.1 -0.1)">
       <defs>
        <path id="DejaVuSans-30" d="M 2034 4250 
Q 1547 4250 1301 3770 
Q 1056 3291 1056 2328 
Q 1056 1369 1301 889 
Q 1547 409 2034 409 
Q 2525 409 2770 889 
Q 3016 1369 3016 2328 
Q 3016 3291 2770 3770 
Q 2525 4250 2034 4250 
z
M 2034 4750 
Q 2819 4750 3233 4129 
Q 3647 3509 3647 2328 
Q 3647 1150 3233 529 
Q 2819 -91 2034 -91 
Q 1250 -91 836 529 
Q 422 1150 422 2328 
Q 422 3509 836 4129 
Q 1250 4750 2034 4750 
z
" transform="scale(0.015625)"/>
        <path id="DejaVuSans-2e" d="M 684 794 
L 1344 794 
L 1344 0 
L 684 0 
L 684 794 
z
" transform="scale(0.015625)"/>
       </defs>
       <use xlink:href="#DejaVuSans-30"/>
       <use xlink:href="#DejaVuSans-2e" transform="translate(63.623047 0)"/>
       <use xlink:href="#DejaVuSans-30" transform="translate(95.410156 0)"/>
      </g>
     </g>
    </g>
    <g id="xtick_2">
     <g id="line2d_2">
      <g>
       <use xlink:href="#me49ff17d24" x="129.024" y="307.584" style="stroke: #000000; stroke-width: 0.8"/>
      </g>
     </g>
     <g id="text_2">
      <!-- 0.5 -->
      <g transform="translate(121.072438 322.182437) scale(0.1 -0.1)">
       <defs>
        <path id="DejaVuSans-35" d="M 691 4666 
L 3169 4666 
L 3169 4134 
L 1269 4134 
L 1269 2991 
Q 1406 3038 1543 3061 
Q 1681 3084 1819 3084 
Q 2600 3084 3056 2656 
Q 3513 2228 3513 1497 
Q 3513 744 3044 326 
Q 2575 -91 1722 -91 
Q 1428 -91 1123 -41 
Q 819 9 494 109 
L 494 744 
Q 775 591 1075 516 
Q 1375 441 1709 441 
Q 2250 441 2565 725 
Q 2881 1009 2881 1497 
Q 2881 1984 2565 2268 
Q 2250 2553 1709 2553 
Q 1456 2553 1204 2497 
Q 953 2441 691 2322 
L 691 4666 
z
" transform="scale(0.015625)"/>
       </defs>
       <use xlink:href="#DejaVuSans-30"/>
       <use xlink:href="#DejaVuSans-2e" transform="translate(63.623047 0)"/>
       <use xlink:href="#DejaVuSans-35" transform="translate(95.410156 0)"/>
      </g>
     </g>
    </g>
    <g id="xtick_3">
     <g id="line2d_3">
      <g>
       <use xlink:href="#me49ff17d24" x="200.448" y="307.584" style="stroke: #000000; stroke-width: 0.8"/>
      </g>
     </g>
     <g id="text_3">
      <!-- 1.0 -->
      <g transform="translate(192.496438 322.182437) scale(0.1 -0.1)">
       <defs>
        <path id="DejaVuSans-31" d="M 794 531 
L 1825 531 
L 1825 4091 
L 703 3866 
L 703 4441 
L 1819 4666 
L 2450 4666 
L 2450 531 
L 3481 531 
L 3481 0 
L 794 0 
L 794 531 
z
" transform="scale(0.015625)"/>
       </defs>
       <use xlink:href="#DejaVuSans-31"/>
       <use xlink:href="#DejaVuSans-2e" transform="translate(63.623047 0)"/>
       <use xlink:href="#DejaVuSans-30" transform="translate(95.410156 0)"/>
      </g>
     </g>
    </g>
    <g id="xtick_4">
     <g id="line2d_4">
      <g>
       <use xlink:href="#me49ff17d24" x="271.872" y="307.584" style="stroke: #000000; stroke-width: 0.8"/>
      </g>
     </g>
     <g id="text_4">
      <!-- 1.5 -->
      <g transform="translate(263.920437 322.182437) scale(0.1 -0.1)">
       <use xlink:href="#DejaVuSans-31"/>
       <use xlink:href="#DejaVuSans-2e" transform="translate(63.623047 0)"/>
       <use xlink:href="#DejaVuSans-35" transform="translate(95.410156 0)"/>
      </g>
     </g>
    </g>
    <g id="xtick_5">
     <g id="line2d_5">
      <g>
       <use xlink:href="#me49ff17d24" x="343.296" y="307.584" style="stroke: #000000; stroke-width: 0.8"/>
      </g>
     </g>
     <g id="text_5">
      <!-- 2.0 -->
      <g transform="translate(335.344438 322.182437) scale(0.1 -0.1)">
       <defs>
        <path id="DejaVuSans-32" d="M 1228 531 
L 3431 531 
L 3431 0 
L 469 0 
L 469 531 
Q 828 903 1448 1529 
Q 2069 2156 2228 2338 
Q 2531 2678 2651 2914 
Q 2772 3150 2772 3378 
Q 2772 3750 2511 3984 
Q 2250 4219 1831 4219 
Q 1534 4219 1204 4116 
Q 875 4013 500 3803 
L 500 4441 
Q 881 4594 1212 4672 
Q 1544 4750 1819 4750 
Q 2544 4750 2975 4387 
Q 3406 4025 3406 3419 
Q 3406 3131 3298 2873 
Q 3191 2616 2906 2266 
Q 2828 2175 2409 1742 
Q 1991 1309 1228 531 
z
" transform="scale(0.015625)"/>
       </defs>
       <use xlink:href="#DejaVuSans-32"/>
       <use xlink:href="#DejaVuSans-2e" transform="translate(63.623047 0)"/>
       <use xlink:href="#DejaVuSans-30" transform="translate(95.410156 0)"/>
      </g>
     </g>
    </g>
    <g id="xtick_6">
     <g id="line2d_6">
      <g>
       <use xlink:href="#me49ff17d24" x="414.72" y="307.584" style="stroke: #000000; stroke-width: 0.8"/>
      </g>
     </g>
     <g id="text_6">
      <!-- 2.5 -->
      <g transform="translate(406.768438 322.182437) scale(0.1 -0.1)">
       <use xlink:href="#DejaVuSans-32"/>
       <use xlink:href="#DejaVuSans-2e" transform="translate(63.623047 0)"/>
       <use xlink:href="#DejaVuSans-35" transform="translate(95.410156 0)"/>
      </g>
     </g>
    </g>
    <g id="text_7">
     <!-- n₀ (fm⁻³) -->
     <g transform="translate(214.221719 335.860562) scale(0.1 -0.1)">
      <defs>
       <path id="DejaVuSans-6e" d="M 3513 2113 
L 3513 0 
L 2938 0 
L 2938 2094 
Q 2938 2591 2744 2837 
Q 2550 3084 2163 3084 
Q 1697 3084 1428 2787 
Q 1159 2491 1159 1978 
L 1159 0 
L 581 0 
L 581 3500 
L 1159 3500 
L 1159 2956 
Q 1366 3272 1645 3428 
Q 1925 3584 2291 3584 
Q 2894 3584 3203 3211 
Q 3513 2838 3513 2113 
z
" transform="scale(0.015625)"/>
       <path id="DejaVuSans-2080" d="M 1781 2091 
Q 1625 2360 1309 2360 
Q 994 2360 838 2091 
Q 678 1822 678 1285 
Q 678 744 838 476 
Q 994 207 1309 207 
Q 1625 207 1781 476 
Q 1941 744 1941 1285 
Q 1941 1822 1781 2091 
z
M 1309 2638 
Q 1813 2638 2078 2291 
Q 2344 1944 2344 1285 
Q 2344 622 2078 275 
Q 1813 -71 1309 -71 
Q 803 -71 537 275 
Q 272 622 272 1285 
Q 272 1944 537 2291 
Q 803 2638 1309 2638 
z
" transform="scale(0.015625)"/>
       <path id="DejaVuSans-20" transform="scale(0.015625)"/>
       <path id="DejaVuSans-28" d="M 1984 4856 
Q 1566 4138 1362 3434 
Q 1159 2731 1159 2009 
Q 1159 1288 1364 580 
Q 1569 -128 1984 -844 
L 1484 -844 
Q 1016 -109 783 600 
Q 550 1309 550 2009 
Q 550 2706 781 3412 
Q 1013 4119 1484 4856 
L 1984 4856 
z
" transform="scale(0.015625)"/>
       <path id="DejaVuSans-66" d="M 2375 4863 
L 2375 4384 
L 1825 4384 
Q 1516 4384 1395 4259 
Q 1275 4134 1275 3809 
L 1275 3500 
L 2222 3500 
L 2222 3053 
L 1275 3053 
L 1275 0 
L 697 0 
L 697 3053 
L 147 3053 
L 147 3500 
L 697 3500 
L 697 3744 
Q 697 4328 969 4595 
Q 1241 4863 1831 4863 
L 2375 4863 
z
" transform="scale(0.015625)"/>
       <path id="DejaVuSans-6d" d="M 3328 2828 
Q 3544 3216 3844 3400 
Q 4144 3584 4550 3584 
Q 5097 3584 5394 3201 
Q 5691 2819 5691 2113 
L 5691 0 
L 5113 0 
L 5113 2094 
Q 5113 2597 4934 2840 
Q 4756 3084 4391 3084 
Q 3944 3084 3684 2787 
Q 3425 2491 3425 1978 
L 3425 0 
L 2847 0 
L 2847 2094 
Q 2847 2600 2669 2842 
Q 2491 3084 2119 3084 
Q 1678 3084 1418 2786 
Q 1159 2488 1159 1978 
L 1159 0 
L 581 0 
L 581 3500 
L 1159 3500 
L 1159 2956 
Q 1356 3278 1631 3431 
Q 1906 3584 2284 3584 
Q 2666 3584 2933 3390 
Q 3200 3197 3328 2828 
z
" transform="scale(0.015625)"/>
       <path id="DejaVuSans-207b" d="M 428 3359 
L 2950 3359 
L 2950 3063 
L 428 3063 
L 428 3359 
z
" transform="scale(0.015625)"/>
       <path id="DejaVuSans-b3" d="M 1638 3500 
Q 1925 3444 2083 3273 
Q 2241 3103 2241 2847 
Q 2241 2459 1944 2250 
Q 1647 2041 1094 2041 
Q 916 2041 720 2073 
Q 525 2106 306 2169 
L 306 2547 
Q 469 2463 655 2422 
Q 841 2381 1050 2381 
Q 1391 2381 1578 2504 
Q 1766 2628 1766 2847 
Q 1766 3078 1592 3197 
Q 1419 3316 1081 3316 
L 813 3316 
L 813 3653 
L 1106 3653 
Q 1400 3653 1551 3751 
Q 1703 3850 1703 4038 
Q 1703 4219 1547 4314 
Q 1391 4409 1094 4409 
Q 969 4409 809 4381 
Q 650 4353 397 4281 
L 397 4641 
Q 625 4694 825 4722 
Q 1025 4750 1197 4750 
Q 1647 4750 1911 4565 
Q 2175 4381 2175 4072 
Q 2175 3856 2034 3706 
Q 1894 3556 1638 3500 
z
" transform="scale(0.015625)"/>
       <path id="DejaVuSans-29" d="M 513 4856 
L 1013 4856 
Q 1481 4119 1714 3412 
Q 1947 2706 1947 2009 
Q 1947 1309 1714 600 
Q 1481 -109 1013 -844 
L 513 -844 
Q 928 -128 1133 580 
Q 1338 1288 1338 2009 
Q 1338 2731 1133 3434 
Q 928 4138 513 4856 
z
" transform="scale(0.015625)"/>
      </defs>
      <use xlink:href="#DejaVuSans-6e"/>
      <use xlink:href="#DejaVuSans-2080" transform="translate(63.378906 0)"/>
      <use xlink:href="#DejaVuSans-20" transform="translate(103.466797 0)"/>
      <use xlink:href="#DejaVuSans-28" transform="translate(135.253906 0)"/>
      <use xlink:href="#DejaVuSans-66" transform="translate(174.267578 0)"/>
      <use xlink:href="#DejaVuSans-6d" transform="translate(209.472656 0)"/>
      <use xlink:href="#DejaVuSans-207b" transform="translate(306.884766 0)"/>
      <use xlink:href="#DejaVuSans-b3" transform="translate(359.667969 0)"/>
      <use xlink:href="#DejaVuSans-29" transform="translate(399.755859 0)"/>
     </g>
    </g>
   </g>
   <g id="matplotlib.axis_2">
    <g id="ytick_1">
     <g id="line2d_7">
      <defs>
       <path id="mb899da0b62" d="M 0 0 
L -3.5 0 
" style="stroke: #000000; stroke-width: 0.8"/>
      </defs>
      <g>
       <use xlink:href="#mb899da0b62" x="57.6" y="307.584" style="stroke: #000000; stroke-width: 0.8"/>
      </g>
     </g>
     <g id="text_8">
      <!-- 0.0 -->
      <g transform="translate(34.696875 311.383219) scale(0.1 -0.1)">
       <use xlink:href="#DejaVuSans-30"/>
       <use xlink:href="#DejaVuSans-2e" transform="translate(63.623047 0)"/>
       <use xlink:href="#DejaVuSans-30" transform="translate(95.410156 0)"/>
      </g>
     </g>
    </g>
    <g id="ytick_2">
     <g id="line2d_8">
      <g>
       <use xlink:href="#mb899da0b62" x="57.6" y="263.232" style="stroke: #000000; stroke-width: 0.8"/>
      </g>
     </g>
     <g id="text_9">
      <!-- 0.5 -->
      <g transform="translate(34.696875 267.031219) scale(0.1 -0.1)">
       <use xlink:href="#DejaVuSans-30"/>
       <use xlink:href="#DejaVuSans-2e" transform="translate(63.623047 0)"/>
       <use xlink:href="#DejaVuSans-35" transform="translate(95.410156 0)"/>
      </g>
     </g>
    </g>
    <g id="ytick_3">
     <g id="line2d_9">
      <g>
       <use xlink:href="#mb899da0b62" x="57.6" y="218.88" style="stroke: #000000; stroke-width: 0.8"/>
      </g>
     </g>
     <g id="text_10">
      <!-- 1.0 -->
      <g transform="translate(34.696875 222.679219) scale(0.1 -0.1)">
       <use xlink:href="#DejaVuSans-31"/>
       <use xlink:href="#DejaVuSans-2e" transform="translate(63.623047 0)"/>
       <use xlink:href="#DejaVuSans-30" transform="translate(95.410156 0)"/>
      </g>
     </g>
    </g>
    <g id="ytick_4">
     <g id="line2d_10">
      <g>
       <use xlink:href="#mb899da0b62" x="57.6" y="174.528" style="stroke: #000000; stroke-width: 0.8"/>
      </g>
     </g>
     <g id="text_11">
      <!-- 1.5 -->
      <g transform="translate(34.696875 178.327219) scale(0.1 -0.1)">
       <use xlink:href="#DejaVuSans-31"/>
       <use xlink:href="#DejaVuSans-2e" transform="translate(63.623047 0)"/>
       <use xlink:href="#DejaVuSans-35" transform="translate(95.410156 0)"/>
      </g>
     </g>
    </g>
    <g id="ytick_5">
     <g id="line2d_11">
      <g>
       <use xlink:href="#mb899da0b62" x="57.6" y="130.176" style="stroke: #000000; stroke-width: 0.8"/>
      </g>
     </g>
     <g id="text_12">
      <!-- 2.0 -->
      <g transform="translate(34.696875 133.975219) scale(0.1 -0.1)">
       <use xlink:href="#DejaVuSans-32"/>
       <use xlink:href="#DejaVuSans-2e" transform="translate(63.623047 0)"/>
       <use xlink:href="#DejaVuSans-30" transform="translate(95.410156 0)"/>
      </g>
     </g>
    </g>
    <g id="ytick_6">
     <g id="line2d_12">
      <g>
       <use xlink:href="#mb899da0b62" x="57.6" y="85.824" style="stroke: #000000; stroke-width: 0.8"/>
      </g>
     </g>
     <g id="text_13">
      <!-- 2.5 -->
      <g transform="translate(34.696875 89.623219) scale(0.1 -0.1)">
       <use xlink:href="#DejaVuSans-32"/>
       <use xlink:href="#DejaVuSans-2e" transform="translate(63.623047 0)"/>
       <use xlink:href="#DejaVuSans-35" transform="translate(95.410156 0)"/>
      </g>
     </g>
    </g>
    <g id="ytick_7">
     <g id="line2d_13">
      <g>
       <use xlink:href="#mb899da0b62" x="57.6" y="41.472" style="stroke: #000000; stroke-width: 0.8"/>
      </g>
     </g>
     <g id="text_14">
      <!-- 3.0 -->
      <g transform="translate(34.696875 45.271219) scale(0.1 -0.1)">
       <defs>
        <path id="DejaVuSans-33" d="M 2597 2516 
Q 3050 2419 3304 2112 
Q 3559 1806 3559 1356 
Q 3559 666 3084 287 
Q 2609 -91 1734 -91 
Q 1441 -91 1130 -33 
Q 819 25 488 141 
L 488 750 
Q 750 597 1062 519 
Q 1375 441 1716 441 
Q 2309 441 2620 675 
Q 2931 909 2931 1356 
Q 2931 1769 2642 2001 
Q 2353 2234 1838 2234 
L 1294 2234 
L 1294 2753 
L 1863 2753 
Q 2328 2753 2575 2939 
Q 2822 3125 2822 3475 
Q 2822 3834 2567 4026 
Q 2313 4219 1838 4219 
Q 1578 4219 1281 4162 
Q 984 4106 628 3988 
L 628 4550 
Q 988 4650 1302 4700 
Q 1616 4750 1894 4750 
Q 2613 4750 3031 4423 
Q 3450 4097 3450 3541 
Q 3450 3153 3228 2886 
Q 3006 2619 2597 2516 
z
" transform="scale(0.015625)"/>
       </defs>
       <use xlink:href="#DejaVuSans-33"/>
       <use xlink:href="#DejaVuSans-2e" transform="translate(63.623047 0)"/>
       <use xlink:href="#DejaVuSans-30" transform="translate(95.410156 0)"/>
      </g>
     </g>
    </g>
    <g id="text_15">
     <!-- M (M☉) -->
     <g transform="translate(28.617187 193.129562) rotate(-90) scale(0.1 -0.1)">
      <defs>
       <path id="DejaVuSans-4d" d="M 628 4666 
L 1569 4666 
L 2759 1491 
L 3956 4666 
L 4897 4666 
L 4897 0 
L 4281 0 
L 4281 4097 
L 3078 897 
L 2444 897 
L 1241 4097 
L 1241 0 
L 628 0 
L 628 4666 
z
" transform="scale(0.015625)"/>
       <path id="DejaVuSans-2609" d="M 5206 2338 
Q 5206 1366 4522 683 
Q 3838 0 2866 0 
Q 1900 0 1215 683 
Q 531 1366 531 2338 
Q 531 2944 845 3508 
Q 1159 4072 1721 4373 
Q 2284 4675 2866 4675 
Q 3456 4675 4018 4373 
Q 4581 4072 4893 3511 
Q 5206 2950 5206 2338 
z
M 759 2338 
Q 759 1463 1375 848 
Q 1991 234 2866 234 
Q 3741 234 4356 848 
Q 4972 1463 4972 2338 
Q 4972 2891 4690 3394 
Q 4409 3897 3903 4169 
Q 3397 4441 2865 4441 
Q 2334 4441 1828 4169 
Q 1322 3897 1040 3394 
Q 759 2891 759 2338 
z
M 3453 2338 
Q 3453 2094 3283 1923 
Q 3113 1753 2869 1753 
Q 2628 1753 2456 1923 
Q 2284 2094 2284 2338 
Q 2284 2491 2362 2631 
Q 2441 2772 2581 2847 
Q 2722 2922 2869 2922 
Q 3016 2922 3156 2847 
Q 3297 2772 3375 2631 
Q 3453 2491 3453 2338 
z
" transform="scale(0.015625)"/>
      </defs>
      <use xlink:href="#DejaVuSans-4d"/>
      <use xlink:href="#DejaVuSans-20" transform="translate(86.279297 0)"/>
      <use xlink:href="#DejaVuSans-28" transform="translate(118.066406 0)"/>
      <use xlink:href="#DejaVuSans-4d" transform="translate(157.080078 0)"/>
      <use xlink:href="#DejaVuSans-2609" transform="translate(243.359375 0)"/>
      <use xlink:href="#DejaVuSans-29" transform="translate(333.007812 0)"/>
     </g>
    </g>
   </g>
   <g id="line2d_14">
    <path d="M 59.02848 305.202335 
L 62.332742 300.479281 
L 65.637004 296.600089 
L 68.941265 293.275944 
L 72.245527 290.257307 
L 75.549789 287.322951 
L 78.854051 284.271078 
L 82.158313 280.914539 
L 85.462575 277.081898 
L 88.766836 272.623766 
L 92.071098 267.421484 
L 95.37536 261.394664 
L 98.679622 254.505354 
L 101.983884 246.758541 
L 105.288145 238.199604 
L 108.592407 228.909624 
L 111.896669 218.99912 
L 115.200931 208.600849 
L 118.505193 197.862196 
L 121.809455 186.937433 
L 125.113716 175.980524 
L 128.417978 165.138713 
L 131.72224 154.547194 
L 135.026502 144.325217 
L 138.330764 134.573416 
L 141.635025 125.372646 
L 144.939287 116.783724 
L 148.243549 108.848395 
L 151.547811 101.590706 
L 154.852073 95.019356 
L 158.156335 89.129655 
L 161.460596 83.906047 
L 164.764858 79.324519 
L 168.06912 75.354606 
L 171.373382 71.96128 
L 174.677644 69.106819 
L 177.981905 66.751832 
L 181.286167 64.85672 
L 184.590429 63.382415 
L 187.894691 62.290929 
L 191.198953 61.546067 
L 194.503215 61.113356 
L 197.807476 60.960651 
L 201.111738 61.058113 
L 204.416 61.378044 
L 207.720262 61.894896 
L 211.024524 62.585516 
L 214.328785 63.428647 
L 217.633047 64.404908 
L 220.937309 65.496737 
L 224.241571 66.688276 
L 227.545833 67.965233 
L 230.850095 69.314361 
L 234.154356 70.724066 
L 237.458618 72.183703 
L 240.76288 73.683641 
L 244.067142 75.215199 
L 247.371404 76.770375 
L 250.675665 78.342123 
L 253.979927 79.923907 
L 257.284189 81.509711 
L 260.588451 83.094171 
L 263.892713 84.672325 
L 267.196975 86.239417 
L 270.501236 87.791169 
L 273.805498 89.323729 
L 277.10976 90.833361 
L 280.414022 92.316229 
L 283.718284 93.769323 
L 287.022545 95.189043 
L 290.326807 96.572431 
L 293.631069 97.916382 
L 296.935331 99.217542 
L 300.239593 100.473039 
L 303.543855 101.679602 
L 306.848116 102.833971 
L 310.152378 103.932856 
L 313.45664 104.972496 
L 316.760902 105.949345 
L 320.065164 106.859131 
L 323.369425 107.697707 
L 326.673687 108.460069 
L 329.977949 109.141108 
L 333.282211 109.735006 
L 336.586473 110.235208 
L 339.890735 110.634573 
L 343.194996 110.925029 
L 346.499258 111.097446 
" clip-path="url(#p3410e66629)" style="fill: none; stroke: #1f77b4; stroke-width: 1.5; stroke-linecap: square"/>
   </g>
   <g id="line2d_15">
    <path d="M 59.02848 307.48496 
L 62.332742 306.270467 
L 65.637004 303.757154 
L 68.941265 300.053803 
L 72.245527 295.265837 
L 75.549789 289.493207 
L 78.854051 282.82938 
L 82.158313 275.363649 
L 85.462575 267.18116 
L 88.766836 258.364898 
L 92.071098 248.997918 
L 95.37536 239.163552 
L 98.679622 228.94765 
L 101.983884 218.437273 
L 105.288145 207.723124 
L 108.592407 196.897789 
L 111.896669 186.052888 
L 115.200931 175.280488 
L 118.505193 164.671762 
L 121.809455 154.311987 
L 125.113716 144.281727 
L 128.417978 134.652586 
L 131.72224 125.489553 
L 135.026502 116.845254 
L 138.330764 108.763274 
L 141.635025 101.27518 
L 144.939287 94.401402 
L 148.243549 88.153657 
L 151.547811 82.532432 
L 154.852073 77.529394 
L 158.156335 73.130658 
L 161.460596 69.314172 
L 164.764858 66.052942 
L 168.06912 63.318257 
L 171.373382 61.077491 
L 174.677644 59.296042 
L 177.981905 57.938287 
L 181.286167 56.970554 
L 184.590429 56.356492 
L 187.894691 56.064551 
L 191.198953 56.061576 
L 194.503215 56.315517 
L 197.807476 56.800328 
L 201.111738 57.488679 
L 204.416 58.354927 
L 207.720262 59.375968 
L 211.024524 60.530713 
L 214.328785 61.797777 
L 217.633047 63.161167 
L 220.937309 64.60409 
L 224.241571 66.109928 
L 227.545833 67.664558 
L 230.850095 69.255329 
L 234.154356 70.87092 
L 237.458618 72.497835 
L 240.76288 74.127976 
L 244.067142 75.748284 
L 247.371404 77.349274 
L 250.675665 78.923822 
L 253.979927 80.458751 
L 257.284189 81.946972 
L 260.588451 83.37873 
L 263.892713 84.741009 
L 267.196975 86.024353 
L 270.501236 87.215115 
L 273.805498 88.301631 
L 277.10976 89.26733 
L 280.414022 90.093233 
L 283.718284 90.760386 
L 287.022545 91.243316 
L 290.326807 91.509948 
" clip-path="url(#p3410e66629)" style="fill: none; stroke: #ff7f0e; stroke-width: 1.5; stroke-linecap: square"/>
   </g>
   <g id="line2d_16">
    <path d="M 59.02848 307.584 
L 62.332742 307.584 
L 65.637004 307.032634 
L 68.941265 303.991333 
L 72.245527 299.375795 
L 75.549789 293.369044 
L 78.854051 286.157504 
L 82.158313 277.938664 
L 85.462575 268.896723 
L 88.766836 259.230657 
L 92.071098 249.11702 
L 95.37536 238.724228 
L 98.679622 228.205581 
L 101.983884 217.687253 
L 105.288145 207.285252 
L 108.592407 197.116906 
L 111.896669 187.238377 
L 115.200931 177.734874 
L 118.505193 168.649837 
L 121.809455 160.027695 
L 125.113716 151.882504 
L 128.417978 144.241745 
L 131.72224 137.097438 
L 135.026502 130.458696 
L 138.330764 124.327224 
L 141.635025 118.674261 
L 144.939287 113.499628 
L 148.243549 108.774901 
L 151.547811 104.485403 
L 154.852073 100.614276 
L 158.156335 97.127584 
L 161.460596 94.014285 
L 164.764858 91.247183 
L 168.06912 88.799182 
L 171.373382 86.658612 
L 174.677644 84.79902 
L 177.981905 83.194784 
L 181.286167 81.835576 
L 184.590429 80.704064 
L 187.894691 79.777213 
L 191.198953 79.033056 
L 194.503215 78.470216 
L 197.807476 78.06843 
L 201.111738 77.808405 
L 204.416 77.684478 
L 207.720262 77.679113 
L 211.024524 77.787874 
L 214.328785 77.99489 
L 217.633047 78.291191 
L 220.937309 78.673702 
L 224.241571 79.128975 
L 227.545833 79.649607 
L 230.850095 80.228809 
L 234.154356 80.865543 
L 237.458618 81.543063 
L 240.76288 82.261583 
L 244.067142 83.020757 
L 247.371404 83.805915 
L 250.675665 84.622467 
L 253.979927 85.456584 
L 257.284189 86.31407 
L 260.588451 87.181748 
L 263.892713 88.061277 
L 267.196975 88.953759 
L 270.501236 89.847275 
L 273.805498 90.74368 
L 277.10976 91.640336 
L 280.414022 92.534772 
L 283.718284 93.424669 
L 287.022545 94.303538 
L 290.326807 95.177628 
L 293.631069 96.036703 
L 296.935331 96.882964 
L 300.239593 97.71433 
L 303.543855 98.528862 
L 306.848116 99.324842 
L 310.152378 100.096745 
L 313.45664 100.850148 
L 316.760902 101.57577 
L 320.065164 102.27173 
L 323.369425 102.943832 
L 326.673687 103.582555 
L 329.977949 104.186196 
L 333.282211 104.759665 
L 336.586473 105.293924 
L 339.890735 105.786747 
L 343.194996 106.242859 
L 346.499258 106.648981 
L 349.80352 107.009955 
L 353.107782 107.322836 
L 356.412044 107.581225 
L 359.716305 107.782018 
L 363.020567 107.925591 
L 366.324829 108.005153 
" clip-path="url(#p3410e66629)" style="fill: none; stroke: #2ca02c; stroke-width: 1.5; stroke-linecap: square"/>
   </g>
   <g id="patch_3">
    <path d="M 57.6 307.584 
L 57.6 41.472 
" style="fill: none; stroke: #000000; stroke-width: 0.8; stroke-linejoin: miter; stroke-linecap: square"/>
   </g>
   <g id="patch_4">
    <path d="M 414.72 307.584 
L 414.72 41.472 
" style="fill: none; stroke: #000000; stroke-width: 0.8; stroke-linejoin: miter; stroke-linecap: square"/>
   </g>
   <g id="patch_5">
    <path d="M 57.6 307.584 
L 414.72 307.584 
" style="fill: none; stroke: #000000; stroke-width: 0.8; stroke-linejoin: miter; stroke-linecap: square"/>
   </g>
   <g id="patch_6">
    <path d="M 57.6 41.472 
L 414.72 41.472 
" style="fill: none; stroke: #000000; stroke-width: 0.8; stroke-linejoin: miter; stroke-linecap: square"/>
   </g>
   <g id="text_16">
    <!-- Mass vs Central Density -->
    <g transform="translate(164.000625 35.472) scale(0.12 -0.12)">
     <defs>
      <path id="DejaVuSans-61" d="M 2194 1759 
Q 1497 1759 1228 1600 
Q 959 1441 959 1056 
Q 959 750 1161 570 
Q 1363 391 1709 391 
Q 2188 391 2477 730 
Q 2766 1069 2766 1631 
L 2766 1759 
L 2194 1759 
z
M 3341 1997 
L 3341 0 
L 2766 0 
L 2766 531 
Q 2569 213 2275 61 
Q 1981 -91 1556 -91 
Q 1019 -91 701 211 
Q 384 513 384 1019 
Q 384 1609 779 1909 
Q 1175 2209 1959 2209 
L 2766 2209 
L 2766 2266 
Q 2766 2663 2505 2880 
Q 2244 3097 1772 3097 
Q 1472 3097 1187 3025 
Q 903 2953 641 2809 
L 641 3341 
Q 956 3463 1253 3523 
Q 1550 3584 1831 3584 
Q 2591 3584 2966 3190 
Q 3341 2797 3341 1997 
z
" transform="scale(0.015625)"/>
      <path id="DejaVuSans-73" d="M 2834 3397 
L 2834 2853 
Q 2591 2978 2328 3040 
Q 2066 3103 1784 3103 
Q 1356 3103 1142 2972 
Q 928 2841 928 2578 
Q 928 2378 1081 2264 
Q 1234 2150 1697 2047 
L 1894 2003 
Q 2506 1872 2764 1633 
Q 3022 1394 3022 966 
Q 3022 478 2636 193 
Q 2250 -91 1575 -91 
Q 1294 -91 989 -36 
Q 684 19 347 128 
L 347 722 
Q 666 556 975 473 
Q 1284 391 1588 391 
Q 1994 391 2212 530 
Q 2431 669 2431 922 
Q 2431 1156 2273 1281 
Q 2116 1406 1581 1522 
L 1381 1569 
Q 847 1681 609 1914 
Q 372 2147 372 2553 
Q 372 3047 722 3315 
Q 1072 3584 1716 3584 
Q 2034 3584 2315 3537 
Q 2597 3491 2834 3397 
z
" transform="scale(0.015625)"/>
      <path id="DejaVuSans-76" d="M 191 3500 
L 800 3500 
L 1894 563 
L 2988 3500 
L 3597 3500 
L 2284 0 
L 1503 0 
L 191 3500 
z
" transform="scale(0.015625)"/>
      <path id="DejaVuSans-43" d="M 4122 4306 
L 4122 3641 
Q 3803 3938 3442 4084 
Q 3081 4231 2675 4231 
Q 1875 4231 1450 3742 
Q 1025 3253 1025 2328 
Q 1025 1406 1450 917 
Q 1875 428 2675 428 
Q 3081 428 3442 575 
Q 3803 722 4122 1019 
L 4122 359 
Q 3791 134 3420 21 
Q 3050 -91 2638 -91 
Q 1578 -91 968 557 
Q 359 1206 359 2328 
Q 359 3453 968 4101 
Q 1578 4750 2638 4750 
Q 3056 4750 3426 4639 
Q 3797 4528 4122 4306 
z
" transform="scale(0.015625)"/>
      <path id="DejaVuSans-65" d="M 3597 1894 
L 3597 1613 
L 953 1613 
Q 991 1019 1311 708 
Q 1631 397 2203 397 
Q 2534 397 2845 478 
Q 3156 559 3463 722 
L 3463 178 
Q 3153 47 2828 -22 
Q 2503 -91 2169 -91 
Q 1331 -91 842 396 
Q 353 884 353 1716 
Q 353 2575 817 3079 
Q 1281 3584 2069 3584 
Q 2775 3584 3186 3129 
Q 3597 2675 3597 1894 
z
M 3022 2063 
Q 3016 2534 2758 2815 
Q 2500 3097 2075 3097 
Q 1594 3097 1305 2825 
Q 1016 2553 972 2059 
L 3022 2063 
z
" transform="scale(0.015625)"/>
      <path id="DejaVuSans-74" d="M 1172 4494 
L 1172 3500 
L 2356 3500 
L 2356 3053 
L 1172 3053 
L 1172 1153 
Q 1172 725 1289 603 
Q 1406 481 1766 481 
L 2356 481 
L 2356 0 
L 1766 0 
Q 1100 0 847 248 
Q 594 497 594 1153 
L 594 3053 
L 172 3053 
L 172 3500 
L 594 3500 
L 594 4494 
L 1172 4494 
z
" transform="scale(0.015625)"/>
      <path id="DejaVuSans-72" d="M 2631 2963 
Q 2534 3019 2420 3045 
Q 2306 3072 2169 3072 
Q 1681 3072 1420 2755 
Q 1159 2438 1159 1844 
L 1159 0 
L 581 0 
L 581 3500 
L 1159 3500 
L 1159 2956 
Q 1341 3275 1631 3429 
Q 1922 3584 2338 3584 
Q 2397 3584 2469 3576 
Q 2541 3569 2628 3553 
L 2631 2963 
z
" transform="scale(0.015625)"/>
      <path id="DejaVuSans-6c" d="M 603 4863 
L 1178 4863 
L 1178 0 
L 603 0 
L 603 4863 
z
" transform="scale(0.015625)"/>
      <path id="DejaVuSans-44" d="M 1259 4147 
L 1259 519 
L 2022 519 
Q 2988 519 3436 956 
Q 3884 1394 3884 2338 
Q 3884 3275 3436 3711 
Q 2988 4147 2022 4147 
L 1259 4147 
z
M 628 4666 
L 1925 4666 
Q 3281 4666 3915 4102 
Q 4550 3538 4550 2338 
Q 4550 1131 3912 565 
Q 3275 0 1925 0 
L 628 0 
L 628 4666 
z
" transform="scale(0.015625)"/>
      <path id="DejaVuSans-69" d="M 603 3500 
L 1178 3500 
L 1178 0 
L 603 0 
L 603 3500 
z
M 603 4863 
L 1178 4863 
L 1178 4134 
L 603 4134 
L 603 4863 
z
" transform="scale(0.015625)"/>
      <path id="DejaVuSans-79" d="M 2059 -325 
Q 1816 -950 1584 -1140 
Q 1353 -1331 966 -1331 
L 506 -1331 
L 506 -850 
L 844 -850 
Q 1081 -850 1212 -737 
Q 1344 -625 1503 -206 
L 1606 56 
L 191 3500 
L 800 3500 
L 1894 763 
L 2988 3500 
L 3597 3500 
L 2059 -325 
z
" transform="scale(0.015625)"/>
     </defs>
     <use xlink:href="#DejaVuSans-4d"/>
     <use xlink:href="#DejaVuSans-61" transform="translate(86.279297 0)"/>
     <use xlink:href="#DejaVuSans-73" transform="translate(147.558594 0)"/>
     <use xlink:href="#DejaVuSans-73" transform="translate(199.658203 0)"/>
     <use xlink:href="#DejaVuSans-20" transform="translate(251.757812 0)"/>
     <use xlink:href="#DejaVuSans-76" transform="translate(283.544922 0)"/>
     <use xlink:href="#DejaVuSans-73" transform="translate(342.724609 0)"/>
     <use xlink:href="#DejaVuSans-20" transform="translate(394.824219 0)"/>
     <use xlink:href="#DejaVuSans-43" transform="translate(426.611328 0)"/>
     <use xlink:href="#DejaVuSans-65" transform="translate(496.435547 0)"/>
     <use xlink:href="#DejaVuSans-6e" transform="translate(557.958984 0)"/>
     <use xlink:href="#DejaVuSans-74" transform="translate(621.337891 0)"/>
     <use xlink:href="#DejaVuSans-72" transform="translate(660.546875 0)"/>
     <use xlink:href="#DejaVuSans-61" transform="translate(701.660156 0)"/>
     <use xlink:href="#DejaVuSans-6c" transform="translate(762.939453 0)"/>
     <use xlink:href="#DejaVuSans-20" transform="translate(790.722656 0)"/>
     <use xlink:href="#DejaVuSans-44" transform="translate(822.509766 0)"/>
     <use xlink:href="#DejaVuSans-65" transform="translate(899.511719 0)"/>
     <use xlink:href="#DejaVuSans-6e" transform="translate(961.035156 0)"/>
     <use xlink:href="#DejaVuSans-73" transform="translate(1024.414062 0)"/>
     <use xlink:href="#DejaVuSans-69" transform="translate(1076.513672 0)"/>
     <use xlink:href="#DejaVuSans-74" transform="translate(1104.296875 0)"/>
     <use xlink:href="#DejaVuSans-79" transform="translate(1143.505859 0)"/>
    </g>
   </g>
   <g id="legend_1">
    <g id="patch_7">
     <path d="M 320.396563 93.506375 
L 407.72 93.506375 
Q 409.72 93.506375 409.72 91.506375 
L 409.72 48.472 
Q 409.72 46.472 407.72 46.472 
L 320.396563 46.472 
Q 318.396563 46.472 318.396563 48.472 
L 318.396563 91.506375 
Q 318.396563 93.506375 320.396563 93.506375 
z
" style="fill: #ffffff; opacity: 0.8; stroke: #cccccc; stroke-linejoin: miter"/>
    </g>
    <g id="line2d_17">
     <path d="M 322.396563 54.570438 
L 332.396563 54.570438 
L 342.396563 54.570438 
" style="fill: none; stroke: #1f77b4; stroke-width: 1.5; stroke-linecap: square"/>
    </g>
    <g id="text_17">
     <!-- AV14+UVII -->
     <g transform="translate(350.396563 58.070438) scale(0.1 -0.1)">
      <defs>
       <path id="DejaVuSans-41" d="M 2188 4044 
L 1331 1722 
L 3047 1722 
L 2188 4044 
z
M 1831 4666 
L 2547 4666 
L 4325 0 
L 3669 0 
L 3244 1197 
L 1141 1197 
L 716 0 
L 50 0 
L 1831 4666 
z
" transform="scale(0.015625)"/>
       <path id="DejaVuSans-56" d="M 1831 0 
L 50 4666 
L 709 4666 
L 2188 738 
L 3669 4666 
L 4325 4666 
L 2547 0 
L 1831 0 
z
" transform="scale(0.015625)"/>
       <path id="DejaVuSans-34" d="M 2419 4116 
L 825 1625 
L 2419 1625 
L 2419 4116 
z
M 2253 4666 
L 3047 4666 
L 3047 1625 
L 3713 1625 
L 3713 1100 
L 3047 1100 
L 3047 0 
L 2419 0 
L 2419 1100 
L 313 1100 
L 313 1709 
L 2253 4666 
z
" transform="scale(0.015625)"/>
       <path id="DejaVuSans-2b" d="M 2944 4013 
L 2944 2272 
L 4684 2272 
L 4684 1741 
L 2944 1741 
L 2944 0 
L 2419 0 
L 2419 1741 
L 678 1741 
L 678 2272 
L 2419 2272 
L 2419 4013 
L 2944 4013 
z
" transform="scale(0.015625)"/>
       <path id="DejaVuSans-55" d="M 556 4666 
L 1191 4666 
L 1191 1831 
Q 1191 1081 1462 751 
Q 1734 422 2344 422 
Q 2950 422 3222 751 
Q 3494 1081 3494 1831 
L 3494 4666 
L 4128 4666 
L 4128 1753 
Q 4128 841 3676 375 
Q 3225 -91 2344 -91 
Q 1459 -91 1007 375 
Q 556 841 556 1753 
L 556 4666 
z
" transform="scale(0.015625)"/>
       <path id="DejaVuSans-49" d="M 628 4666 
L 1259 4666 
L 1259 0 
L 628 0 
L 628 4666 
z
" transform="scale(0.015625)"/>
      </defs>
      <use xlink:href="#DejaVuSans-41"/>
      <use xlink:href="#DejaVuSans-56" transform="translate(62.033203 0)"/>
      <use xlink:href="#DejaVuSans-31" transform="translate(130.441406 0)"/>
      <use xlink:href="#DejaVuSans-34" transform="translate(194.064453 0)"/>
      <use xlink:href="#DejaVuSans-2b" transform="translate(257.6875 0)"/>
      <use xlink:href="#DejaVuSans-55" transform="translate(341.476562 0)"/>
      <use xlink:href="#DejaVuSans-56" transform="translate(414.669922 0)"/>
      <use xlink:href="#DejaVuSans-49" transform="translate(483.078125 0)"/>
      <use xlink:href="#DejaVuSans-49" transform="translate(512.570312 0)"/>
     </g>
    </g>
    <g id="line2d_18">
     <path d="M 322.396563 69.248563 
L 332.396563 69.248563 
L 342.396563 69.248563 
" style="fill: none; stroke: #ff7f0e; stroke-width: 1.5; stroke-linecap: square"/>
    </g>
    <g id="text_18">
     <!-- UV14+UVII -->
     <g transform="translate(350.396563 72.748563) scale(0.1 -0.1)">
      <use xlink:href="#DejaVuSans-55"/>
      <use xlink:href="#DejaVuSans-56" transform="translate(73.193359 0)"/>
      <use xlink:href="#DejaVuSans-31" transform="translate(141.601562 0)"/>
      <use xlink:href="#DejaVuSans-34" transform="translate(205.224609 0)"/>
      <use xlink:href="#DejaVuSans-2b" transform="translate(268.847656 0)"/>
      <use xlink:href="#DejaVuSans-55" transform="translate(352.636719 0)"/>
      <use xlink:href="#DejaVuSans-56" transform="translate(425.830078 0)"/>
      <use xlink:href="#DejaVuSans-49" transform="translate(494.238281 0)"/>
      <use xlink:href="#DejaVuSans-49" transform="translate(523.730469 0)"/>
     </g>
    </g>
    <g id="line2d_19">
     <path d="M 322.396563 83.926688 
L 332.396563 83.926688 
L 342.396563 83.926688 
" style="fill: none; stroke: #2ca02c; stroke-width: 1.5; stroke-linecap: square"/>
    </g>
    <g id="text_19">
     <!-- UV14+TNI -->
     <g transform="translate(350.396563 87.426688) scale(0.1 -0.1)">
      <defs>
       <path id="DejaVuSans-54" d="M -19 4666 
L 3928 4666 
L 3928 4134 
L 2272 4134 
L 2272 0 
L 1638 0 
L 1638 4134 
L -19 4134 
L -19 4666 
z
" transform="scale(0.015625)"/>
       <path id="DejaVuSans-4e" d="M 628 4666 
L 1478 4666 
L 3547 763 
L 3547 4666 
L 4159 4666 
L 4159 0 
L 3309 0 
L 1241 3903 
L 1241 0 
L 628 0 
L 628 4666 
z
" transform="scale(0.015625)"/>
      </defs>
      <use xlink:href="#DejaVuSans-55"/>
      <use xlink:href="#DejaVuSans-56" transform="translate(73.193359 0)"/>
      <use xlink:href="#DejaVuSans-31" transform="translate(141.601562 0)"/>
      <use xlink:href="#DejaVuSans-34" transform="translate(205.224609 0)"/>
      <use xlink:href="#DejaVuSans-2b" transform="translate(268.847656 0)"/>
      <use xlink:href="#DejaVuSans-54" transform="translate(352.636719 0)"/>
      <use xlink:href="#DejaVuSans-4e" transform="translate(413.720703 0)"/>
      <use xlink:href="#DejaVuSans-49" transform="translate(488.525391 0)"/>
     </g>
    </g>
   </g>
  </g>
 </g>
 <defs>
  <clipPath id="p3410e66629">
   <rect x="57.6" y="41.472" width="357.12" height="266.112"/>
  </clipPath>
 </defs>
</svg>
