<?xml version="1.0" encoding="utf-8" standalone="no"?>
<!DOCTYPE svg PUBLIC "-//W3C//DTD SVG 1.1//EN"
  "http://www.w3.org/Graphics/SVG/1.1/DTD/svg11.dtd">
<svg xmlns:xlink="http://www.w3.org/1999/xlink" width="460.8pt" height="345.6pt" viewBox="0 0 460.8 345.6" xmlns="http://www.w3.org/2000/svg" version="1.1">
 <metadata>
  <rdf:RDF xmlns:dc="http://purl.org/dc/elements/1.1/" xmlns:cc="http://creativecommons.org/ns#" xmlns:rdf="http://www.w3.org/1999/02/22-rdf-syntax-ns#">
   <cc:Work>
    <dc:type rdf:resource="http://purl.org/dc/dcmitype/StillImage"/>
    <dc:date>2025-07-03T20:53:55.789941</dc:date>
    <dc:format>image/svg+xml</dc:format>
    <dc:creator>
     <cc:Agent>
      <dc:title>Matplotlib v3.10.3, https://matplotlib.org/</dc:title>
     </cc:Agent>
    </dc:creator>
   </cc:Work>
  </rdf:RDF>
 </metadata>
 <defs>
  <style type="text/css">*{stroke-linejoin: round; stroke-linecap: butt}</style>
 </defs>
 <g id="figure_1">
  <g id="patch_1">
   <path d="M 0 345.6 
L 460.8 345.6 
L 460.8 0 
L 0 0 
z
" style="fill: #ffffff"/>
  </g>
  <g id="axes_1">
   <g id="patch_2">
    <path d="M 57.6 307.584 
L 414.72 307.584 
L 414.72 41.472 
L 57.6 41.472 
z
" style="fill: #ffffff"/>
   </g>
   <g id="matplotlib.axis_1">
    <g id="xtick_1">
     <g id="line2d_1">
      <defs>
       <path id="mc9b86de87c" d="M 0 0 
L 0 3.5 
" style="stroke: #000000; stroke-width: 0.8"/>
      </defs>
      <g>
       <use xlink:href="#mc9b86de87c" x="57.6" y="307.584" style="stroke: #000000; stroke-width: 0.8"/>
      </g>
     </g>
     <g id="text_1">
      <!-- 0.0 -->
      <g transform="translate(49.648438 322.182437) scale(0.1 -0.1)">
       <defs>
        <path id="DejaVuSans-30" d="M 2034 4250 
Q 1547 4250 1301 3770 
Q 1056 3291 1056 2328 
Q 1056 1369 1301 889 
Q 1547 409 2034 409 
Q 2525 409 2770 889 
Q 3016 1369 3016 2328 
Q 3016 3291 2770 3770 
Q 2525 4250 2034 4250 
z
M 2034 4750 
Q 2819 4750 3233 4129 
Q 3647 3509 3647 2328 
Q 3647 1150 3233 529 
Q 2819 -91 2034 -91 
Q 1250 -91 836 529 
Q 422 1150 422 2328 
Q 422 3509 836 4129 
Q 1250 4750 2034 4750 
z
" transform="scale(0.015625)"/>
        <path id="DejaVuSans-2e" d="M 684 794 
L 1344 794 
L 1344 0 
L 684 0 
L 684 794 
z
" transform="scale(0.015625)"/>
       </defs>
       <use xlink:href="#DejaVuSans-30"/>
       <use xlink:href="#DejaVuSans-2e" transform="translate(63.623047 0)"/>
       <use xlink:href="#DejaVuSans-30" transform="translate(95.410156 0)"/>
      </g>
     </g>
    </g>
    <g id="xtick_2">
     <g id="line2d_2">
      <g>
       <use xlink:href="#mc9b86de87c" x="129.024" y="307.584" style="stroke: #000000; stroke-width: 0.8"/>
      </g>
     </g>
     <g id="text_2">
      <!-- 0.5 -->
      <g transform="translate(121.072438 322.182437) scale(0.1 -0.1)">
       <defs>
        <path id="DejaVuSans-35" d="M 691 4666 
L 3169 4666 
L 3169 4134 
L 1269 4134 
L 1269 2991 
Q 1406 3038 1543 3061 
Q 1681 3084 1819 3084 
Q 2600 3084 3056 2656 
Q 3513 2228 3513 1497 
Q 3513 744 3044 326 
Q 2575 -91 1722 -91 
Q 1428 -91 1123 -41 
Q 819 9 494 109 
L 494 744 
Q 775 591 1075 516 
Q 1375 441 1709 441 
Q 2250 441 2565 725 
Q 2881 1009 2881 1497 
Q 2881 1984 2565 2268 
Q 2250 2553 1709 2553 
Q 1456 2553 1204 2497 
Q 953 2441 691 2322 
L 691 4666 
z
" transform="scale(0.015625)"/>
       </defs>
       <use xlink:href="#DejaVuSans-30"/>
       <use xlink:href="#DejaVuSans-2e" transform="translate(63.623047 0)"/>
       <use xlink:href="#DejaVuSans-35" transform="translate(95.410156 0)"/>
      </g>
     </g>
    </g>
    <g id="xtick_3">
     <g id="line2d_3">
      <g>
       <use xlink:href="#mc9b86de87c" x="200.448" y="307.584" style="stroke: #000000; stroke-width: 0.8"/>
      </g>
     </g>
     <g id="text_3">
      <!-- 1.0 -->
      <g transform="translate(192.496438 322.182437) scale(0.1 -0.1)">
       <defs>
        <path id="DejaVuSans-31" d="M 794 531 
L 1825 531 
L 1825 4091 
L 703 3866 
L 703 4441 
L 1819 4666 
L 2450 4666 
L 2450 531 
L 3481 531 
L 3481 0 
L 794 0 
L 794 531 
z
" transform="scale(0.015625)"/>
       </defs>
       <use xlink:href="#DejaVuSans-31"/>
       <use xlink:href="#DejaVuSans-2e" transform="translate(63.623047 0)"/>
       <use xlink:href="#DejaVuSans-30" transform="translate(95.410156 0)"/>
      </g>
     </g>
    </g>
    <g id="xtick_4">
     <g id="line2d_4">
      <g>
       <use xlink:href="#mc9b86de87c" x="271.872" y="307.584" style="stroke: #000000; stroke-width: 0.8"/>
      </g>
     </g>
     <g id="text_4">
      <!-- 1.5 -->
      <g transform="translate(263.920437 322.182437) scale(0.1 -0.1)">
       <use xlink:href="#DejaVuSans-31"/>
       <use xlink:href="#DejaVuSans-2e" transform="translate(63.623047 0)"/>
       <use xlink:href="#DejaVuSans-35" transform="translate(95.410156 0)"/>
      </g>
     </g>
    </g>
    <g id="xtick_5">
     <g id="line2d_5">
      <g>
       <use xlink:href="#mc9b86de87c" x="343.296" y="307.584" style="stroke: #000000; stroke-width: 0.8"/>
      </g>
     </g>
     <g id="text_5">
      <!-- 2.0 -->
      <g transform="translate(335.344438 322.182437) scale(0.1 -0.1)">
       <defs>
        <path id="DejaVuSans-32" d="M 1228 531 
L 3431 531 
L 3431 0 
L 469 0 
L 469 531 
Q 828 903 1448 1529 
Q 2069 2156 2228 2338 
Q 2531 2678 2651 2914 
Q 2772 3150 2772 3378 
Q 2772 3750 2511 3984 
Q 2250 4219 1831 4219 
Q 1534 4219 1204 4116 
Q 875 4013 500 3803 
L 500 4441 
Q 881 4594 1212 4672 
Q 1544 4750 1819 4750 
Q 2544 4750 2975 4387 
Q 3406 4025 3406 3419 
Q 3406 3131 3298 2873 
Q 3191 2616 2906 2266 
Q 2828 2175 2409 1742 
Q 1991 1309 1228 531 
z
" transform="scale(0.015625)"/>
       </defs>
       <use xlink:href="#DejaVuSans-32"/>
       <use xlink:href="#DejaVuSans-2e" transform="translate(63.623047 0)"/>
       <use xlink:href="#DejaVuSans-30" transform="translate(95.410156 0)"/>
      </g>
     </g>
    </g>
    <g id="xtick_6">
     <g id="line2d_6">
      <g>
       <use xlink:href="#mc9b86de87c" x="414.72" y="307.584" style="stroke: #000000; stroke-width: 0.8"/>
      </g>
     </g>
     <g id="text_6">
      <!-- 2.5 -->
      <g transform="translate(406.768438 322.182437) scale(0.1 -0.1)">
       <use xlink:href="#DejaVuSans-32"/>
       <use xlink:href="#DejaVuSans-2e" transform="translate(63.623047 0)"/>
       <use xlink:href="#DejaVuSans-35" transform="translate(95.410156 0)"/>
      </g>
     </g>
    </g>
    <g id="text_7">
     <!-- n₀ (fm⁻³) -->
     <g transform="translate(214.221719 335.860562) scale(0.1 -0.1)">
      <defs>
       <path id="DejaVuSans-6e" d="M 3513 2113 
L 3513 0 
L 2938 0 
L 2938 2094 
Q 2938 2591 2744 2837 
Q 2550 3084 2163 3084 
Q 1697 3084 1428 2787 
Q 1159 2491 1159 1978 
L 1159 0 
L 581 0 
L 581 3500 
L 1159 3500 
L 1159 2956 
Q 1366 3272 1645 3428 
Q 1925 3584 2291 3584 
Q 2894 3584 3203 3211 
Q 3513 2838 3513 2113 
z
" transform="scale(0.015625)"/>
       <path id="DejaVuSans-2080" d="M 1781 2091 
Q 1625 2360 1309 2360 
Q 994 2360 838 2091 
Q 678 1822 678 1285 
Q 678 744 838 476 
Q 994 207 1309 207 
Q 1625 207 1781 476 
Q 1941 744 1941 1285 
Q 1941 1822 1781 2091 
z
M 1309 2638 
Q 1813 2638 2078 2291 
Q 2344 1944 2344 1285 
Q 2344 622 2078 275 
Q 1813 -71 1309 -71 
Q 803 -71 537 275 
Q 272 622 272 1285 
Q 272 1944 537 2291 
Q 803 2638 1309 2638 
z
" transform="scale(0.015625)"/>
       <path id="DejaVuSans-20" transform="scale(0.015625)"/>
       <path id="DejaVuSans-28" d="M 1984 4856 
Q 1566 4138 1362 3434 
Q 1159 2731 1159 2009 
Q 1159 1288 1364 580 
Q 1569 -128 1984 -844 
L 1484 -844 
Q 1016 -109 783 600 
Q 550 1309 550 2009 
Q 550 2706 781 3412 
Q 1013 4119 1484 4856 
L 1984 4856 
z
" transform="scale(0.015625)"/>
       <path id="DejaVuSans-66" d="M 2375 4863 
L 2375 4384 
L 1825 4384 
Q 1516 4384 1395 4259 
Q 1275 4134 1275 3809 
L 1275 3500 
L 2222 3500 
L 2222 3053 
L 1275 3053 
L 1275 0 
L 697 0 
L 697 3053 
L 147 3053 
L 147 3500 
L 697 3500 
L 697 3744 
Q 697 4328 969 4595 
Q 1241 4863 1831 4863 
L 2375 4863 
z
" transform="scale(0.015625)"/>
       <path id="DejaVuSans-6d" d="M 3328 2828 
Q 3544 3216 3844 3400 
Q 4144 3584 4550 3584 
Q 5097 3584 5394 3201 
Q 5691 2819 5691 2113 
L 5691 0 
L 5113 0 
L 5113 2094 
Q 5113 2597 4934 2840 
Q 4756 3084 4391 3084 
Q 3944 3084 3684 2787 
Q 3425 2491 3425 1978 
L 3425 0 
L 2847 0 
L 2847 2094 
Q 2847 2600 2669 2842 
Q 2491 3084 2119 3084 
Q 1678 3084 1418 2786 
Q 1159 2488 1159 1978 
L 1159 0 
L 581 0 
L 581 3500 
L 1159 3500 
L 1159 2956 
Q 1356 3278 1631 3431 
Q 1906 3584 2284 3584 
Q 2666 3584 2933 3390 
Q 3200 3197 3328 2828 
z
" transform="scale(0.015625)"/>
       <path id="DejaVuSans-207b" d="M 428 3359 
L 2950 3359 
L 2950 3063 
L 428 3063 
L 428 3359 
z
" transform="scale(0.015625)"/>
       <path id="DejaVuSans-b3" d="M 1638 3500 
Q 1925 3444 2083 3273 
Q 2241 3103 2241 2847 
Q 2241 2459 1944 2250 
Q 1647 2041 1094 2041 
Q 916 2041 720 2073 
Q 525 2106 306 2169 
L 306 2547 
Q 469 2463 655 2422 
Q 841 2381 1050 2381 
Q 1391 2381 1578 2504 
Q 1766 2628 1766 2847 
Q 1766 3078 1592 3197 
Q 1419 3316 1081 3316 
L 813 3316 
L 813 3653 
L 1106 3653 
Q 1400 3653 1551 3751 
Q 1703 3850 1703 4038 
Q 1703 4219 1547 4314 
Q 1391 4409 1094 4409 
Q 969 4409 809 4381 
Q 650 4353 397 4281 
L 397 4641 
Q 625 4694 825 4722 
Q 1025 4750 1197 4750 
Q 1647 4750 1911 4565 
Q 2175 4381 2175 4072 
Q 2175 3856 2034 3706 
Q 1894 3556 1638 3500 
z
" transform="scale(0.015625)"/>
       <path id="DejaVuSans-29" d="M 513 4856 
L 1013 4856 
Q 1481 4119 1714 3412 
Q 1947 2706 1947 2009 
Q 1947 1309 1714 600 
Q 1481 -109 1013 -844 
L 513 -844 
Q 928 -128 1133 580 
Q 1338 1288 1338 2009 
Q 1338 2731 1133 3434 
Q 928 4138 513 4856 
z
" transform="scale(0.015625)"/>
      </defs>
      <use xlink:href="#DejaVuSans-6e"/>
      <use xlink:href="#DejaVuSans-2080" transform="translate(63.378906 0)"/>
      <use xlink:href="#DejaVuSans-20" transform="translate(103.466797 0)"/>
      <use xlink:href="#DejaVuSans-28" transform="translate(135.253906 0)"/>
      <use xlink:href="#DejaVuSans-66" transform="translate(174.267578 0)"/>
      <use xlink:href="#DejaVuSans-6d" transform="translate(209.472656 0)"/>
      <use xlink:href="#DejaVuSans-207b" transform="translate(306.884766 0)"/>
      <use xlink:href="#DejaVuSans-b3" transform="translate(359.667969 0)"/>
      <use xlink:href="#DejaVuSans-29" transform="translate(399.755859 0)"/>
     </g>
    </g>
   </g>
   <g id="matplotlib.axis_2">
    <g id="ytick_1">
     <g id="line2d_7">
      <defs>
       <path id="m3659dd7f48" d="M 0 0 
L -3.5 0 
" style="stroke: #000000; stroke-width: 0.8"/>
      </defs>
      <g>
       <use xlink:href="#m3659dd7f48" x="57.6" y="307.584" style="stroke: #000000; stroke-width: 0.8"/>
      </g>
     </g>
     <g id="text_8">
      <!-- 0 -->
      <g transform="translate(44.2375 311.383219) scale(0.1 -0.1)">
       <use xlink:href="#DejaVuSans-30"/>
      </g>
     </g>
    </g>
    <g id="ytick_2">
     <g id="line2d_8">
      <g>
       <use xlink:href="#m3659dd7f48" x="57.6" y="272.1024" style="stroke: #000000; stroke-width: 0.8"/>
      </g>
     </g>
     <g id="text_9">
      <!-- 2 -->
      <g transform="translate(44.2375 275.901619) scale(0.1 -0.1)">
       <use xlink:href="#DejaVuSans-32"/>
      </g>
     </g>
    </g>
    <g id="ytick_3">
     <g id="line2d_9">
      <g>
       <use xlink:href="#m3659dd7f48" x="57.6" y="236.6208" style="stroke: #000000; stroke-width: 0.8"/>
      </g>
     </g>
     <g id="text_10">
      <!-- 4 -->
      <g transform="translate(44.2375 240.420019) scale(0.1 -0.1)">
       <defs>
        <path id="DejaVuSans-34" d="M 2419 4116 
L 825 1625 
L 2419 1625 
L 2419 4116 
z
M 2253 4666 
L 3047 4666 
L 3047 1625 
L 3713 1625 
L 3713 1100 
L 3047 1100 
L 3047 0 
L 2419 0 
L 2419 1100 
L 313 1100 
L 313 1709 
L 2253 4666 
z
" transform="scale(0.015625)"/>
       </defs>
       <use xlink:href="#DejaVuSans-34"/>
      </g>
     </g>
    </g>
    <g id="ytick_4">
     <g id="line2d_10">
      <g>
       <use xlink:href="#m3659dd7f48" x="57.6" y="201.1392" style="stroke: #000000; stroke-width: 0.8"/>
      </g>
     </g>
     <g id="text_11">
      <!-- 6 -->
      <g transform="translate(44.2375 204.938419) scale(0.1 -0.1)">
       <defs>
        <path id="DejaVuSans-36" d="M 2113 2584 
Q 1688 2584 1439 2293 
Q 1191 2003 1191 1497 
Q 1191 994 1439 701 
Q 1688 409 2113 409 
Q 2538 409 2786 701 
Q 3034 994 3034 1497 
Q 3034 2003 2786 2293 
Q 2538 2584 2113 2584 
z
M 3366 4563 
L 3366 3988 
Q 3128 4100 2886 4159 
Q 2644 4219 2406 4219 
Q 1781 4219 1451 3797 
Q 1122 3375 1075 2522 
Q 1259 2794 1537 2939 
Q 1816 3084 2150 3084 
Q 2853 3084 3261 2657 
Q 3669 2231 3669 1497 
Q 3669 778 3244 343 
Q 2819 -91 2113 -91 
Q 1303 -91 875 529 
Q 447 1150 447 2328 
Q 447 3434 972 4092 
Q 1497 4750 2381 4750 
Q 2619 4750 2861 4703 
Q 3103 4656 3366 4563 
z
" transform="scale(0.015625)"/>
       </defs>
       <use xlink:href="#DejaVuSans-36"/>
      </g>
     </g>
    </g>
    <g id="ytick_5">
     <g id="line2d_11">
      <g>
       <use xlink:href="#m3659dd7f48" x="57.6" y="165.6576" style="stroke: #000000; stroke-width: 0.8"/>
      </g>
     </g>
     <g id="text_12">
      <!-- 8 -->
      <g transform="translate(44.2375 169.456819) scale(0.1 -0.1)">
       <defs>
        <path id="DejaVuSans-38" d="M 2034 2216 
Q 1584 2216 1326 1975 
Q 1069 1734 1069 1313 
Q 1069 891 1326 650 
Q 1584 409 2034 409 
Q 2484 409 2743 651 
Q 3003 894 3003 1313 
Q 3003 1734 2745 1975 
Q 2488 2216 2034 2216 
z
M 1403 2484 
Q 997 2584 770 2862 
Q 544 3141 544 3541 
Q 544 4100 942 4425 
Q 1341 4750 2034 4750 
Q 2731 4750 3128 4425 
Q 3525 4100 3525 3541 
Q 3525 3141 3298 2862 
Q 3072 2584 2669 2484 
Q 3125 2378 3379 2068 
Q 3634 1759 3634 1313 
Q 3634 634 3220 271 
Q 2806 -91 2034 -91 
Q 1263 -91 848 271 
Q 434 634 434 1313 
Q 434 1759 690 2068 
Q 947 2378 1403 2484 
z
M 1172 3481 
Q 1172 3119 1398 2916 
Q 1625 2713 2034 2713 
Q 2441 2713 2670 2916 
Q 2900 3119 2900 3481 
Q 2900 3844 2670 4047 
Q 2441 4250 2034 4250 
Q 1625 4250 1398 4047 
Q 1172 3844 1172 3481 
z
" transform="scale(0.015625)"/>
       </defs>
       <use xlink:href="#DejaVuSans-38"/>
      </g>
     </g>
    </g>
    <g id="ytick_6">
     <g id="line2d_12">
      <g>
       <use xlink:href="#m3659dd7f48" x="57.6" y="130.176" style="stroke: #000000; stroke-width: 0.8"/>
      </g>
     </g>
     <g id="text_13">
      <!-- 10 -->
      <g transform="translate(37.875 133.975219) scale(0.1 -0.1)">
       <use xlink:href="#DejaVuSans-31"/>
       <use xlink:href="#DejaVuSans-30" transform="translate(63.623047 0)"/>
      </g>
     </g>
    </g>
    <g id="ytick_7">
     <g id="line2d_13">
      <g>
       <use xlink:href="#m3659dd7f48" x="57.6" y="94.6944" style="stroke: #000000; stroke-width: 0.8"/>
      </g>
     </g>
     <g id="text_14">
      <!-- 12 -->
      <g transform="translate(37.875 98.493619) scale(0.1 -0.1)">
       <use xlink:href="#DejaVuSans-31"/>
       <use xlink:href="#DejaVuSans-32" transform="translate(63.623047 0)"/>
      </g>
     </g>
    </g>
    <g id="ytick_8">
     <g id="line2d_14">
      <g>
       <use xlink:href="#m3659dd7f48" x="57.6" y="59.2128" style="stroke: #000000; stroke-width: 0.8"/>
      </g>
     </g>
     <g id="text_15">
      <!-- 14 -->
      <g transform="translate(37.875 63.012019) scale(0.1 -0.1)">
       <use xlink:href="#DejaVuSans-31"/>
       <use xlink:href="#DejaVuSans-34" transform="translate(63.623047 0)"/>
      </g>
     </g>
    </g>
    <g id="text_16">
     <!-- R (km) -->
     <g transform="translate(31.795312 191.258469) rotate(-90) scale(0.1 -0.1)">
      <defs>
       <path id="DejaVuSans-52" d="M 2841 2188 
Q 3044 2119 3236 1894 
Q 3428 1669 3622 1275 
L 4263 0 
L 3584 0 
L 2988 1197 
Q 2756 1666 2539 1819 
Q 2322 1972 1947 1972 
L 1259 1972 
L 1259 0 
L 628 0 
L 628 4666 
L 2053 4666 
Q 2853 4666 3247 4331 
Q 3641 3997 3641 3322 
Q 3641 2881 3436 2590 
Q 3231 2300 2841 2188 
z
M 1259 4147 
L 1259 2491 
L 2053 2491 
Q 2509 2491 2742 2702 
Q 2975 2913 2975 3322 
Q 2975 3731 2742 3939 
Q 2509 4147 2053 4147 
L 1259 4147 
z
" transform="scale(0.015625)"/>
       <path id="DejaVuSans-6b" d="M 581 4863 
L 1159 4863 
L 1159 1991 
L 2875 3500 
L 3609 3500 
L 1753 1863 
L 3688 0 
L 2938 0 
L 1159 1709 
L 1159 0 
L 581 0 
L 581 4863 
z
" transform="scale(0.015625)"/>
      </defs>
      <use xlink:href="#DejaVuSans-52"/>
      <use xlink:href="#DejaVuSans-20" transform="translate(69.482422 0)"/>
      <use xlink:href="#DejaVuSans-28" transform="translate(101.269531 0)"/>
      <use xlink:href="#DejaVuSans-6b" transform="translate(140.283203 0)"/>
      <use xlink:href="#DejaVuSans-6d" transform="translate(198.193359 0)"/>
      <use xlink:href="#DejaVuSans-29" transform="translate(295.605469 0)"/>
     </g>
    </g>
   </g>
   <g id="line2d_15">
    <path d="M 59.02848 92.535777 
L 62.332742 97.390139 
L 65.637004 101.734792 
L 68.941265 105.545466 
L 72.245527 108.894976 
L 75.549789 111.856136 
L 78.854051 114.477492 
L 82.158313 116.686226 
L 85.462575 118.48234 
L 88.766836 119.793018 
L 92.071098 120.545444 
L 95.37536 120.788162 
L 98.679622 120.545444 
L 101.983884 119.890105 
L 105.288145 118.894961 
L 108.592407 117.705642 
L 111.896669 116.419236 
L 115.200931 115.084287 
L 118.505193 113.822153 
L 121.809455 112.657106 
L 125.113716 111.63769 
L 128.417978 110.812449 
L 131.72224 110.181382 
L 135.026502 109.768761 
L 138.330764 109.550315 
L 141.635025 109.574586 
L 144.939287 109.793033 
L 148.243549 110.229925 
L 151.547811 110.812449 
L 154.852073 111.589146 
L 158.156335 112.511475 
L 161.460596 113.555163 
L 164.764858 114.72021 
L 168.06912 116.006615 
L 171.373382 117.365837 
L 174.677644 118.822145 
L 177.981905 120.326997 
L 181.286167 121.880393 
L 184.590429 123.482332 
L 187.894691 125.108544 
L 191.198953 126.783298 
L 194.503215 128.458053 
L 197.807476 130.132808 
L 201.111738 131.831834 
L 204.416 133.530861 
L 207.720262 135.205616 
L 211.024524 136.880371 
L 214.328785 138.555125 
L 217.633047 140.205608 
L 220.937309 141.831819 
L 224.241571 143.433759 
L 227.545833 145.035698 
L 230.850095 146.589094 
L 234.154356 148.118218 
L 237.458618 149.62307 
L 240.76288 151.10365 
L 244.067142 152.559959 
L 247.371404 153.967724 
L 250.675665 155.351217 
L 253.979927 156.710438 
L 257.284189 158.021115 
L 260.588451 159.307521 
L 263.892713 160.569655 
L 267.196975 161.783246 
L 270.501236 162.948293 
L 273.805498 164.089068 
L 277.10976 165.205571 
L 280.414022 166.249258 
L 283.718284 167.292946 
L 287.022545 168.263819 
L 290.326807 169.210419 
L 293.631069 170.132748 
L 296.935331 170.982261 
L 300.239593 171.807503 
L 303.543855 172.5842 
L 306.848116 173.312355 
L 310.152378 174.016237 
L 313.45664 174.647304 
L 316.760902 175.254099 
L 320.065164 175.788079 
L 323.369425 176.297787 
L 326.673687 176.73468 
L 329.977949 177.123029 
L 333.282211 177.462834 
L 336.586473 177.729824 
L 339.890735 177.94827 
L 343.194996 178.118173 
L 346.499258 178.190988 
" clip-path="url(#p26d4bd09af)" style="fill: none; stroke: #1f77b4; stroke-width: 1.5; stroke-linecap: square"/>
   </g>
   <g id="line2d_16">
    <path d="M 59.02848 244.671471 
L 62.332742 205.278326 
L 65.637004 184.550202 
L 68.941265 169.865758 
L 72.245527 158.433736 
L 75.549789 149.137634 
L 78.854051 141.322111 
L 82.158313 134.671636 
L 85.462575 128.943489 
L 88.766836 123.967769 
L 92.071098 119.647387 
L 95.37536 115.885256 
L 98.679622 112.632834 
L 101.983884 109.817304 
L 105.288145 107.414395 
L 108.592407 105.424107 
L 111.896669 103.773624 
L 115.200931 102.438675 
L 118.505193 101.443531 
L 121.809455 100.739648 
L 125.113716 100.327027 
L 128.417978 100.157125 
L 131.72224 100.254212 
L 135.026502 100.569745 
L 138.330764 101.103725 
L 141.635025 101.83188 
L 144.939287 102.729936 
L 148.243549 103.797896 
L 151.547811 105.011486 
L 154.852073 106.346436 
L 158.156335 107.802744 
L 161.460596 109.35614 
L 164.764858 110.982351 
L 168.06912 112.681378 
L 171.373382 114.45322 
L 174.677644 116.273605 
L 177.981905 118.118263 
L 181.286167 120.011464 
L 184.590429 121.904665 
L 187.894691 123.822138 
L 191.198953 125.739611 
L 194.503215 127.632812 
L 197.807476 129.526013 
L 201.111738 131.419214 
L 204.416 133.288143 
L 207.720262 135.1328 
L 211.024524 136.953186 
L 214.328785 138.725028 
L 217.633047 140.472598 
L 220.937309 142.195897 
L 224.241571 143.870651 
L 227.545833 145.496862 
L 230.850095 147.07453 
L 234.154356 148.627926 
L 237.458618 150.108506 
L 240.76288 151.564814 
L 244.067142 152.948308 
L 247.371404 154.258985 
L 250.675665 155.545391 
L 253.979927 156.73471 
L 257.284189 157.875485 
L 260.588451 158.967716 
L 263.892713 159.96286 
L 267.196975 160.885189 
L 270.501236 161.71043 
L 273.805498 162.462856 
L 277.10976 163.118195 
L 280.414022 163.652175 
L 283.718284 164.089068 
L 287.022545 164.404601 
L 290.326807 164.550232 
" clip-path="url(#p26d4bd09af)" style="fill: none; stroke: #ff7f0e; stroke-width: 1.5; stroke-linecap: square"/>
   </g>
   <g id="line2d_17">
    <path d="M 59.02848 307.583998 
L 62.332742 307.583998 
L 65.637004 250.690879 
L 68.941265 208.967641 
L 72.245527 185.763792 
L 75.549789 169.08906 
L 78.854051 156.152186 
L 82.158313 145.763852 
L 85.462575 137.220176 
L 88.766836 130.15708 
L 92.071098 124.283302 
L 95.37536 119.404669 
L 98.679622 115.375548 
L 101.983884 112.050311 
L 105.288145 109.331868 
L 108.592407 107.195949 
L 111.896669 105.496923 
L 115.200931 104.234789 
L 118.505193 103.336732 
L 121.809455 102.77848 
L 125.113716 102.487218 
L 128.417978 102.462947 
L 131.72224 102.632849 
L 135.026502 102.996926 
L 138.330764 103.555178 
L 141.635025 104.234789 
L 144.939287 105.06003 
L 148.243549 105.982359 
L 151.547811 107.001775 
L 154.852073 108.118278 
L 158.156335 109.283325 
L 161.460596 110.521187 
L 164.764858 111.807593 
L 168.06912 113.11827 
L 171.373382 114.477492 
L 174.677644 115.860985 
L 177.981905 117.244478 
L 181.286167 118.652243 
L 184.590429 120.084279 
L 187.894691 121.516316 
L 191.198953 122.924081 
L 194.503215 124.356118 
L 197.807476 125.788154 
L 201.111738 127.195919 
L 204.416 128.603684 
L 207.720262 129.987177 
L 211.024524 131.37067 
L 214.328785 132.729891 
L 217.633047 134.064841 
L 220.937309 135.39979 
L 224.241571 136.710468 
L 227.545833 137.996874 
L 230.850095 139.259008 
L 234.154356 140.521142 
L 237.458618 141.734732 
L 240.76288 142.924051 
L 244.067142 144.113369 
L 247.371404 145.254144 
L 250.675665 146.394919 
L 253.979927 147.487151 
L 257.284189 148.579382 
L 260.588451 149.62307 
L 263.892713 150.642486 
L 267.196975 151.661902 
L 270.501236 152.632774 
L 273.805498 153.579375 
L 277.10976 154.501703 
L 280.414022 155.39976 
L 283.718284 156.273545 
L 287.022545 157.098787 
L 290.326807 157.924028 
L 293.631069 158.700726 
L 296.935331 159.453152 
L 300.239593 160.181306 
L 303.543855 160.885189 
L 306.848116 161.564799 
L 310.152378 162.195866 
L 313.45664 162.826933 
L 316.760902 163.409457 
L 320.065164 163.943437 
L 323.369425 164.477416 
L 326.673687 164.962853 
L 329.977949 165.399745 
L 333.282211 165.836638 
L 336.586473 166.224987 
L 339.890735 166.564792 
L 343.194996 166.904597 
L 346.499258 167.171587 
L 349.80352 167.414305 
L 353.107782 167.632752 
L 356.412044 167.802654 
L 359.716305 167.924013 
L 363.020567 168.0211 
L 366.324829 168.069644 
" clip-path="url(#p26d4bd09af)" style="fill: none; stroke: #2ca02c; stroke-width: 1.5; stroke-linecap: square"/>
   </g>
   <g id="patch_3">
    <path d="M 57.6 307.584 
L 57.6 41.472 
" style="fill: none; stroke: #000000; stroke-width: 0.8; stroke-linejoin: miter; stroke-linecap: square"/>
   </g>
   <g id="patch_4">
    <path d="M 414.72 307.584 
L 414.72 41.472 
" style="fill: none; stroke: #000000; stroke-width: 0.8; stroke-linejoin: miter; stroke-linecap: square"/>
   </g>
   <g id="patch_5">
    <path d="M 57.6 307.584 
L 414.72 307.584 
" style="fill: none; stroke: #000000; stroke-width: 0.8; stroke-linejoin: miter; stroke-linecap: square"/>
   </g>
   <g id="patch_6">
    <path d="M 57.6 41.472 
L 414.72 41.472 
" style="fill: none; stroke: #000000; stroke-width: 0.8; stroke-linejoin: miter; stroke-linecap: square"/>
   </g>
   <g id="text_17">
    <!-- Radius vs Central Density -->
    <g transform="translate(158.990625 35.472) scale(0.12 -0.12)">
     <defs>
      <path id="DejaVuSans-61" d="M 2194 1759 
Q 1497 1759 1228 1600 
Q 959 1441 959 1056 
Q 959 750 1161 570 
Q 1363 391 1709 391 
Q 2188 391 2477 730 
Q 2766 1069 2766 1631 
L 2766 1759 
L 2194 1759 
z
M 3341 1997 
L 3341 0 
L 2766 0 
L 2766 531 
Q 2569 213 2275 61 
Q 1981 -91 1556 -91 
Q 1019 -91 701 211 
Q 384 513 384 1019 
Q 384 1609 779 1909 
Q 1175 2209 1959 2209 
L 2766 2209 
L 2766 2266 
Q 2766 2663 2505 2880 
Q 2244 3097 1772 3097 
Q 1472 3097 1187 3025 
Q 903 2953 641 2809 
L 641 3341 
Q 956 3463 1253 3523 
Q 1550 3584 1831 3584 
Q 2591 3584 2966 3190 
Q 3341 2797 3341 1997 
z
" transform="scale(0.015625)"/>
      <path id="DejaVuSans-64" d="M 2906 2969 
L 2906 4863 
L 3481 4863 
L 3481 0 
L 2906 0 
L 2906 525 
Q 2725 213 2448 61 
Q 2172 -91 1784 -91 
Q 1150 -91 751 415 
Q 353 922 353 1747 
Q 353 2572 751 3078 
Q 1150 3584 1784 3584 
Q 2172 3584 2448 3432 
Q 2725 3281 2906 2969 
z
M 947 1747 
Q 947 1113 1208 752 
Q 1469 391 1925 391 
Q 2381 391 2643 752 
Q 2906 1113 2906 1747 
Q 2906 2381 2643 2742 
Q 2381 3103 1925 3103 
Q 1469 3103 1208 2742 
Q 947 2381 947 1747 
z
" transform="scale(0.015625)"/>
      <path id="DejaVuSans-69" d="M 603 3500 
L 1178 3500 
L 1178 0 
L 603 0 
L 603 3500 
z
M 603 4863 
L 1178 4863 
L 1178 4134 
L 603 4134 
L 603 4863 
z
" transform="scale(0.015625)"/>
      <path id="DejaVuSans-75" d="M 544 1381 
L 544 3500 
L 1119 3500 
L 1119 1403 
Q 1119 906 1312 657 
Q 1506 409 1894 409 
Q 2359 409 2629 706 
Q 2900 1003 2900 1516 
L 2900 3500 
L 3475 3500 
L 3475 0 
L 2900 0 
L 2900 538 
Q 2691 219 2414 64 
Q 2138 -91 1772 -91 
Q 1169 -91 856 284 
Q 544 659 544 1381 
z
M 1991 3584 
L 1991 3584 
z
" transform="scale(0.015625)"/>
      <path id="DejaVuSans-73" d="M 2834 3397 
L 2834 2853 
Q 2591 2978 2328 3040 
Q 2066 3103 1784 3103 
Q 1356 3103 1142 2972 
Q 928 2841 928 2578 
Q 928 2378 1081 2264 
Q 1234 2150 1697 2047 
L 1894 2003 
Q 2506 1872 2764 1633 
Q 3022 1394 3022 966 
Q 3022 478 2636 193 
Q 2250 -91 1575 -91 
Q 1294 -91 989 -36 
Q 684 19 347 128 
L 347 722 
Q 666 556 975 473 
Q 1284 391 1588 391 
Q 1994 391 2212 530 
Q 2431 669 2431 922 
Q 2431 1156 2273 1281 
Q 2116 1406 1581 1522 
L 1381 1569 
Q 847 1681 609 1914 
Q 372 2147 372 2553 
Q 372 3047 722 3315 
Q 1072 3584 1716 3584 
Q 2034 3584 2315 3537 
Q 2597 3491 2834 3397 
z
" transform="scale(0.015625)"/>
      <path id="DejaVuSans-76" d="M 191 3500 
L 800 3500 
L 1894 563 
L 2988 3500 
L 3597 3500 
L 2284 0 
L 1503 0 
L 191 3500 
z
" transform="scale(0.015625)"/>
      <path id="DejaVuSans-43" d="M 4122 4306 
L 4122 3641 
Q 3803 3938 3442 4084 
Q 3081 4231 2675 4231 
Q 1875 4231 1450 3742 
Q 1025 3253 1025 2328 
Q 1025 1406 1450 917 
Q 1875 428 2675 428 
Q 3081 428 3442 575 
Q 3803 722 4122 1019 
L 4122 359 
Q 3791 134 3420 21 
Q 3050 -91 2638 -91 
Q 1578 -91 968 557 
Q 359 1206 359 2328 
Q 359 3453 968 4101 
Q 1578 4750 2638 4750 
Q 3056 4750 3426 4639 
Q 3797 4528 4122 4306 
z
" transform="scale(0.015625)"/>
      <path id="DejaVuSans-65" d="M 3597 1894 
L 3597 1613 
L 953 1613 
Q 991 1019 1311 708 
Q 1631 397 2203 397 
Q 2534 397 2845 478 
Q 3156 559 3463 722 
L 3463 178 
Q 3153 47 2828 -22 
Q 2503 -91 2169 -91 
Q 1331 -91 842 396 
Q 353 884 353 1716 
Q 353 2575 817 3079 
Q 1281 3584 2069 3584 
Q 2775 3584 3186 3129 
Q 3597 2675 3597 1894 
z
M 3022 2063 
Q 3016 2534 2758 2815 
Q 2500 3097 2075 3097 
Q 1594 3097 1305 2825 
Q 1016 2553 972 2059 
L 3022 2063 
z
" transform="scale(0.015625)"/>
      <path id="DejaVuSans-74" d="M 1172 4494 
L 1172 3500 
L 2356 3500 
L 2356 3053 
L 1172 3053 
L 1172 1153 
Q 1172 725 1289 603 
Q 1406 481 1766 481 
L 2356 481 
L 2356 0 
L 1766 0 
Q 1100 0 847 248 
Q 594 497 594 1153 
L 594 3053 
L 172 3053 
L 172 3500 
L 594 3500 
L 594 4494 
L 1172 4494 
z
" transform="scale(0.015625)"/>
      <path id="DejaVuSans-72" d="M 2631 2963 
Q 2534 3019 2420 3045 
Q 2306 3072 2169 3072 
Q 1681 3072 1420 2755 
Q 1159 2438 1159 1844 
L 1159 0 
L 581 0 
L 581 3500 
L 1159 3500 
L 1159 2956 
Q 1341 3275 1631 3429 
Q 1922 3584 2338 3584 
Q 2397 3584 2469 3576 
Q 2541 3569 2628 3553 
L 2631 2963 
z
" transform="scale(0.015625)"/>
      <path id="DejaVuSans-6c" d="M 603 4863 
L 1178 4863 
L 1178 0 
L 603 0 
L 603 4863 
z
" transform="scale(0.015625)"/>
      <path id="DejaVuSans-44" d="M 1259 4147 
L 1259 519 
L 2022 519 
Q 2988 519 3436 956 
Q 3884 1394 3884 2338 
Q 3884 3275 3436 3711 
Q 2988 4147 2022 4147 
L 1259 4147 
z
M 628 4666 
L 1925 4666 
Q 3281 4666 3915 4102 
Q 4550 3538 4550 2338 
Q 4550 1131 3912 565 
Q 3275 0 1925 0 
L 628 0 
L 628 4666 
z
" transform="scale(0.015625)"/>
      <path id="DejaVuSans-79" d="M 2059 -325 
Q 1816 -950 1584 -1140 
Q 1353 -1331 966 -1331 
L 506 -1331 
L 506 -850 
L 844 -850 
Q 1081 -850 1212 -737 
Q 1344 -625 1503 -206 
L 1606 56 
L 191 3500 
L 800 3500 
L 1894 763 
L 2988 3500 
L 3597 3500 
L 2059 -325 
z
" transform="scale(0.015625)"/>
     </defs>
     <use xlink:href="#DejaVuSans-52"/>
     <use xlink:href="#DejaVuSans-61" transform="translate(67.232422 0)"/>
     <use xlink:href="#DejaVuSans-64" transform="translate(128.511719 0)"/>
     <use xlink:href="#DejaVuSans-69" transform="translate(191.988281 0)"/>
     <use xlink:href="#DejaVuSans-75" transform="translate(219.771484 0)"/>
     <use xlink:href="#DejaVuSans-73" transform="translate(283.150391 0)"/>
     <use xlink:href="#DejaVuSans-20" transform="translate(335.25 0)"/>
     <use xlink:href="#DejaVuSans-76" transform="translate(367.037109 0)"/>
     <use xlink:href="#DejaVuSans-73" transform="translate(426.216797 0)"/>
     <use xlink:href="#DejaVuSans-20" transform="translate(478.316406 0)"/>
     <use xlink:href="#DejaVuSans-43" transform="translate(510.103516 0)"/>
     <use xlink:href="#DejaVuSans-65" transform="translate(579.927734 0)"/>
     <use xlink:href="#DejaVuSans-6e" transform="translate(641.451172 0)"/>
     <use xlink:href="#DejaVuSans-74" transform="translate(704.830078 0)"/>
     <use xlink:href="#DejaVuSans-72" transform="translate(744.039062 0)"/>
     <use xlink:href="#DejaVuSans-61" transform="translate(785.152344 0)"/>
     <use xlink:href="#DejaVuSans-6c" transform="translate(846.431641 0)"/>
     <use xlink:href="#DejaVuSans-20" transform="translate(874.214844 0)"/>
     <use xlink:href="#DejaVuSans-44" transform="translate(906.001953 0)"/>
     <use xlink:href="#DejaVuSans-65" transform="translate(983.003906 0)"/>
     <use xlink:href="#DejaVuSans-6e" transform="translate(1044.527344 0)"/>
     <use xlink:href="#DejaVuSans-73" transform="translate(1107.90625 0)"/>
     <use xlink:href="#DejaVuSans-69" transform="translate(1160.005859 0)"/>
     <use xlink:href="#DejaVuSans-74" transform="translate(1187.789062 0)"/>
     <use xlink:href="#DejaVuSans-79" transform="translate(1226.998047 0)"/>
    </g>
   </g>
   <g id="legend_1">
    <g id="patch_7">
     <path d="M 320.396563 93.506375 
L 407.72 93.506375 
Q 409.72 93.506375 409.72 91.506375 
L 409.72 48.472 
Q 409.72 46.472 407.72 46.472 
L 320.396563 46.472 
Q 318.396563 46.472 318.396563 48.472 
L 318.396563 91.506375 
Q 318.396563 93.506375 320.396563 93.506375 
z
" style="fill: #ffffff; opacity: 0.8; stroke: #cccccc; stroke-linejoin: miter"/>
    </g>
    <g id="line2d_18">
     <path d="M 322.396563 54.570438 
L 332.396563 54.570438 
L 342.396563 54.570438 
" style="fill: none; stroke: #1f77b4; stroke-width: 1.5; stroke-linecap: square"/>
    </g>
    <g id="text_18">
     <!-- AV14+UVII -->
     <g transform="translate(350.396563 58.070438) scale(0.1 -0.1)">
      <defs>
       <path id="DejaVuSans-41" d="M 2188 4044 
L 1331 1722 
L 3047 1722 
L 2188 4044 
z
M 1831 4666 
L 2547 4666 
L 4325 0 
L 3669 0 
L 3244 1197 
L 1141 1197 
L 716 0 
L 50 0 
L 1831 4666 
z
" transform="scale(0.015625)"/>
       <path id="DejaVuSans-56" d="M 1831 0 
L 50 4666 
L 709 4666 
L 2188 738 
L 3669 4666 
L 4325 4666 
L 2547 0 
L 1831 0 
z
" transform="scale(0.015625)"/>
       <path id="DejaVuSans-2b" d="M 2944 4013 
L 2944 2272 
L 4684 2272 
L 4684 1741 
L 2944 1741 
L 2944 0 
L 2419 0 
L 2419 1741 
L 678 1741 
L 678 2272 
L 2419 2272 
L 2419 4013 
L 2944 4013 
z
" transform="scale(0.015625)"/>
       <path id="DejaVuSans-55" d="M 556 4666 
L 1191 4666 
L 1191 1831 
Q 1191 1081 1462 751 
Q 1734 422 2344 422 
Q 2950 422 3222 751 
Q 3494 1081 3494 1831 
L 3494 4666 
L 4128 4666 
L 4128 1753 
Q 4128 841 3676 375 
Q 3225 -91 2344 -91 
Q 1459 -91 1007 375 
Q 556 841 556 1753 
L 556 4666 
z
" transform="scale(0.015625)"/>
       <path id="DejaVuSans-49" d="M 628 4666 
L 1259 4666 
L 1259 0 
L 628 0 
L 628 4666 
z
" transform="scale(0.015625)"/>
      </defs>
      <use xlink:href="#DejaVuSans-41"/>
      <use xlink:href="#DejaVuSans-56" transform="translate(62.033203 0)"/>
      <use xlink:href="#DejaVuSans-31" transform="translate(130.441406 0)"/>
      <use xlink:href="#DejaVuSans-34" transform="translate(194.064453 0)"/>
      <use xlink:href="#DejaVuSans-2b" transform="translate(257.6875 0)"/>
      <use xlink:href="#DejaVuSans-55" transform="translate(341.476562 0)"/>
      <use xlink:href="#DejaVuSans-56" transform="translate(414.669922 0)"/>
      <use xlink:href="#DejaVuSans-49" transform="translate(483.078125 0)"/>
      <use xlink:href="#DejaVuSans-49" transform="translate(512.570312 0)"/>
     </g>
    </g>
    <g id="line2d_19">
     <path d="M 322.396563 69.248563 
L 332.396563 69.248563 
L 342.396563 69.248563 
" style="fill: none; stroke: #ff7f0e; stroke-width: 1.5; stroke-linecap: square"/>
    </g>
    <g id="text_19">
     <!-- UV14+UVII -->
     <g transform="translate(350.396563 72.748563) scale(0.1 -0.1)">
      <use xlink:href="#DejaVuSans-55"/>
      <use xlink:href="#DejaVuSans-56" transform="translate(73.193359 0)"/>
      <use xlink:href="#DejaVuSans-31" transform="translate(141.601562 0)"/>
      <use xlink:href="#DejaVuSans-34" transform="translate(205.224609 0)"/>
      <use xlink:href="#DejaVuSans-2b" transform="translate(268.847656 0)"/>
      <use xlink:href="#DejaVuSans-55" transform="translate(352.636719 0)"/>
      <use xlink:href="#DejaVuSans-56" transform="translate(425.830078 0)"/>
      <use xlink:href="#DejaVuSans-49" transform="translate(494.238281 0)"/>
      <use xlink:href="#DejaVuSans-49" transform="translate(523.730469 0)"/>
     </g>
    </g>
    <g id="line2d_20">
     <path d="M 322.396563 83.926688 
L 332.396563 83.926688 
L 342.396563 83.926688 
" style="fill: none; stroke: #2ca02c; stroke-width: 1.5; stroke-linecap: square"/>
    </g>
    <g id="text_20">
     <!-- UV14+TNI -->
     <g transform="translate(350.396563 87.426688) scale(0.1 -0.1)">
      <defs>
       <path id="DejaVuSans-54" d="M -19 4666 
L 3928 4666 
L 3928 4134 
L 2272 4134 
L 2272 0 
L 1638 0 
L 1638 4134 
L -19 4134 
L -19 4666 
z
" transform="scale(0.015625)"/>
       <path id="DejaVuSans-4e" d="M 628 4666 
L 1478 4666 
L 3547 763 
L 3547 4666 
L 4159 4666 
L 4159 0 
L 3309 0 
L 1241 3903 
L 1241 0 
L 628 0 
L 628 4666 
z
" transform="scale(0.015625)"/>
      </defs>
      <use xlink:href="#DejaVuSans-55"/>
      <use xlink:href="#DejaVuSans-56" transform="translate(73.193359 0)"/>
      <use xlink:href="#DejaVuSans-31" transform="translate(141.601562 0)"/>
      <use xlink:href="#DejaVuSans-34" transform="translate(205.224609 0)"/>
      <use xlink:href="#DejaVuSans-2b" transform="translate(268.847656 0)"/>
      <use xlink:href="#DejaVuSans-54" transform="translate(352.636719 0)"/>
      <use xlink:href="#DejaVuSans-4e" transform="translate(413.720703 0)"/>
      <use xlink:href="#DejaVuSans-49" transform="translate(488.525391 0)"/>
     </g>
    </g>
   </g>
  </g>
 </g>
 <defs>
  <clipPath id="p26d4bd09af">
   <rect x="57.6" y="41.472" width="357.12" height="266.112"/>
  </clipPath>
 </defs>
</svg>
